<svg id="Layer_1" height="512" viewBox="0 0 512 512" width="512" xmlns="http://www.w3.org/2000/svg" data-name="Layer 1"><path d="m431.84 80.01a13.751 13.751 0 0 0 -9.89 4.19 14.054 14.054 0 0 0 -3.95 10.12v139.82a14 14 0 1 0 28 0v-139.82a14.18 14.18 0 0 0 -14.16-14.31z" fill="#59597a"/><path d="m374 31h28v450h-28z" fill="#6d7486"/><path d="m110 31h28v450h-28z" fill="#6d7486"/><path d="m88.95 84.2a13.7 13.7 0 0 0 -9.875-4.19 14.1 14.1 0 0 0 -14.075 14.31v139.82a14 14 0 1 0 28 0v-139.82a14.134 14.134 0 0 0 -4.05-10.12z" fill="#59597a"/><path d="m460.655 86.8a14.676 14.676 0 0 0 -10.3 4.19 14.423 14.423 0 0 0 -4.355 10.13v126.22a14.5 14.5 0 0 0 29 0v-126.22a14.346 14.346 0 0 0 -14.345-14.32z" fill="#6d6d93"/><path d="m60.635 90.99a14.457 14.457 0 0 0 -24.635 10.13v126.22a14.5 14.5 0 0 0 29 0v-126.22a14.43 14.43 0 0 0 -4.365-10.13z" fill="#6d6d93"/><path d="m485.59 154.82a9.41 9.41 0 0 1 0 18.82h-10.66v-18.82z" fill="#c3d0e0"/><path d="m36.02 154.82v18.82h-9.61a9.41 9.41 0 0 1 0-18.82z" fill="#c3d0e0"/><path d="m396.78 154.82-33.08-16.48a20.985 20.985 0 0 0 -23.16 2.93l-37.96 32.87-42.81-18.54a9.5 9.5 0 0 0 -7.54 0l-42.81 18.54-37.96-32.87a20.985 20.985 0 0 0 -23.16-2.93l-33.08 16.48h-21.94v18.82h24.17a9.514 9.514 0 0 0 4.22-.99l35.08-17.47a2.084 2.084 0 0 1 2.31.29l40.46 35.04a13.735 13.735 0 0 0 14.39 2.21l42.09-18.23 42.09 18.23a13.72 13.72 0 0 0 14.39-2.21l40.46-35.04a2.084 2.084 0 0 1 2.31-.29l35.08 17.47a9.514 9.514 0 0 0 4.22.99h23.12v-18.82z" fill="#c3d0e0"/><path d="m352.37 362.17v4.97h-191.72v-4.97a26.569 26.569 0 0 1 26.56-26.58h138.6a26.569 26.569 0 0 1 26.56 26.58z" fill="#5fa8ed"/><path d="m341.36 387.74v93.41h-23.64v-93.41-.44h23.64z" fill="#e1b7a3"/><path d="m195.3 387.74v93.41h-23.64v-93.41-.44h23.64z" fill="#e1b7a3"/><path d="m354.585 367h-195.975c-2.25 0-3.61 1.97-3.61 4.22v14.01a3.451 3.451 0 0 0 3.61 3.77h195.8a3.436 3.436 0 0 0 3.59-3.77v-14.01c0-2.25-1.165-4.22-3.415-4.22z" fill="#c79a83"/><path d="m217.21 335.59h-30a26.569 26.569 0 0 0 -26.56 26.58v4.97h30v-4.97a26.569 26.569 0 0 1 26.56-26.58z" fill="#88c9ff"/><path d="m185 385.23v-14.01c0-2.25 1.36-4.22 3.61-4.22h-30c-2.25 0-3.61 1.97-3.61 4.22v14.01a3.451 3.451 0 0 0 3.61 3.77h30a3.451 3.451 0 0 1 -3.61-3.77z" fill="#e5b49e"/><g fill="#284268"><path d="m317.722 487h23.634a5.578 5.578 0 0 0 5.644-5.848v-86.152h7.226a9.774 9.774 0 0 0 9.774-9.774v-14.633a9.324 9.324 0 0 0 -5.639-8.52 32.428 32.428 0 0 0 -32.555-32.073h-138.593a32.427 32.427 0 0 0 -32.555 32.062 9.316 9.316 0 0 0 -5.658 8.55v14.614a9.774 9.774 0 0 0 9.774 9.774h7.226v86.152a5.593 5.593 0 0 0 5.663 5.848h23.637a5.625 5.625 0 0 0 5.7-5.848v-86.152h111v86.152a5.641 5.641 0 0 0 5.722 5.848zm17.278-12h-11v-80h11zm-146 0h-11v-80h11zm-28-92v-10h14a6 6 0 0 0 0-12h-8.291a20.228 20.228 0 0 1 20.5-19h138.597a20.228 20.228 0 0 1 20.5 19h-131.306a6 6 0 0 0 0 12h137v10z"/><path d="m84 411.2a6 6 0 0 0 12 0v-105.663a6 6 0 0 0 -12 0z"/><path d="m90 291.046a6 6 0 0 0 6-6v-5.357a6 6 0 0 0 -12 0v5.357a6 6 0 0 0 6 6z"/><path d="m485.594 149h-4.594v-47.883a20.33 20.33 0 0 0 -31.458-17 20.1 20.1 0 0 0 -37.542 10.204v54.679h-4v-118.152a5.666 5.666 0 0 0 -5.753-5.848h-28.4a5.743 5.743 0 0 0 -5.847 5.848v103.026l-1.624-.813a26.965 26.965 0 0 0 -29.765 3.715l-35.105 30.386-39.352-17.055a15.526 15.526 0 0 0 -12.306-.007l-39.354 17.042-35.1-30.409a26.95 26.95 0 0 0 -29.768-3.671l-1.623.813v-103.027a5.743 5.743 0 0 0 -5.849-5.848h-28.4a5.666 5.666 0 0 0 -5.754 5.848v118.152h-5v-54.679a20.165 20.165 0 0 0 -37.645-10.2 20.1 20.1 0 0 0 -11.065-3.321 20.316 20.316 0 0 0 -20.29 20.317v47.883h-3.594a15.5 15.5 0 0 0 0 31h3.594v47.343a20.3 20.3 0 0 0 31.421 17 20.123 20.123 0 0 0 37.579-10.203v-54.14h5v301.152a5.666 5.666 0 0 0 5.753 5.848h28.4a5.743 5.743 0 0 0 5.847-5.848v-312.8l13.1-6.561 38.49 33.3a19.772 19.772 0 0 0 20.709 3.158l39.701-17.207 39.7 17.191a19.749 19.749 0 0 0 20.7-3.184l38.5-33.344 13.1 6.6v312.85a5.742 5.742 0 0 0 5.846 5.845h28.4a5.665 5.665 0 0 0 5.754-5.848v-301.152h4v54.14a20.2 20.2 0 0 0 37.607 10.373 20.191 20.191 0 0 0 11.05 3.487h.014c11.2 0 20.329-9.455 20.329-20.657v-47.343h4.594a15.5 15.5 0 0 0 0-31zm-455.594 19h-3.594a3.5 3.5 0 0 1 0-7h3.594zm57 66.14a8.06 8.06 0 0 1 -8.089 8.315 8.2 8.2 0 0 1 -7.911-8.312v-81.143a6 6 0 0 0 -12 0v73.939a8.657 8.657 0 0 1 -6.124 8.383 8.5 8.5 0 0 1 -10.876-7.979v-125.822a8.657 8.657 0 0 1 6.124-8.383 8.5 8.5 0 0 1 10.876 7.979v11.883a6 6 0 0 0 12 0v-18.682a8.2 8.2 0 0 1 7.911-8.312 8.058 8.058 0 0 1 8.089 8.315zm293-197.14h16v110.9l-16-8.016zm-264 0h16v102.886l-16 8.014zm16 438h-16v-295h1.448a15.747 15.747 0 0 0 6.9-1.8l7.652-3.835zm264 0h-16v-300.655l7.653 3.853a15.743 15.743 0 0 0 6.9 1.8h1.447zm16-307h-17.448a3.731 3.731 0 0 1 -1.55-.544l-35.073-17.556a8.079 8.079 0 0 0 -8.921 1.08l-40.458 35.02a7.846 7.846 0 0 1 -8.077 1.225l-42.088-18.235a6 6 0 0 0 -4.77 0l-42.087 18.228a7.715 7.715 0 0 1 -8.081-1.24l-40.457-35.047a8.081 8.081 0 0 0 -8.917-1.125l-35.073 17.65a3.731 3.731 0 0 1 -1.55.544h-18.45v-7h16.217a6.1 6.1 0 0 0 2.675-.72l33.081-16.523a15 15 0 0 1 16.56 2.067l37.956 32.867a6 6 0 0 0 6.313.965l42.818-18.548a3.48 3.48 0 0 1 2.762 0l42.818 18.544a6 6 0 0 0 6.313-.972l37.958-32.88a15.008 15.008 0 0 1 16.558-2.088l33.081 16.568a6.1 6.1 0 0 0 2.675.72h15.215zm28-66.883v133.023a8.006 8.006 0 1 1 -16 0v-139.819a8.006 8.006 0 1 1 16 0zm29 126.226a8.5 8.5 0 0 1 -17 0v-126.226a8.5 8.5 0 0 1 17 0zm16.594-59.343h-4.594v-7h4.594a3.5 3.5 0 0 1 0 7z"/></g></svg>