<svg id="Layer_1" height="512" viewBox="0 0 512 512" width="512" xmlns="http://www.w3.org/2000/svg" data-name="Layer 1"><path d="m495 275.32v106.27a11.572 11.572 0 0 1 -11.57 11.58h-13.51a11.572 11.572 0 0 1 -11.57-11.58v-106.27a11.57 11.57 0 0 1 11.57-11.57h13.51a11.57 11.57 0 0 1 11.57 11.57z" fill="#5a5a77"/><path d="m458.35 275.32v106.27a11.581 11.581 0 0 1 -11.58 11.58h-13.5a11.581 11.581 0 0 1 -11.58-11.58v-106.27a11.578 11.578 0 0 1 11.58-11.57h13.5a11.578 11.578 0 0 1 11.58 11.57z" fill="#6d6d93"/><path d="m410.12 264h-13.51a11.393 11.393 0 0 0 -11.61 11.32v106.27a11.462 11.462 0 0 0 11.61 11.41h13.51c6.39 0 11.88-5.01 11.88-11.41v-106.27c0-6.39-5.49-11.32-11.88-11.32z" fill="#5a5a77"/><path d="m238.59 264h-13.5a10.952 10.952 0 0 0 -11.09 11.32v106.27c0 6.4 4.69 11.41 11.09 11.41h13.5a11.292 11.292 0 0 0 11.41-11.41v-106.27a11.223 11.223 0 0 0 -11.41-11.32z" fill="#5a5a77"/><path d="m213.51 275.32v106.27a11.572 11.572 0 0 1 -11.57 11.58h-13.51a11.572 11.572 0 0 1 -11.57-11.58v-106.27a11.57 11.57 0 0 1 11.57-11.57h13.51a11.57 11.57 0 0 1 11.57 11.57z" fill="#6d6d93"/><path d="m176.86 275.32v106.27a11.574 11.574 0 0 1 -11.58 11.58h-13.5a11.581 11.581 0 0 1 -11.58-11.58v-106.27a11.578 11.578 0 0 1 11.58-11.57h13.5a11.572 11.572 0 0 1 11.58 11.57z" fill="#5a5a77"/><path d="m371.8 130.41v106.27a11.578 11.578 0 0 1 -11.58 11.57h-13.5a11.572 11.572 0 0 1 -11.58-11.57v-106.27a11.574 11.574 0 0 1 11.58-11.58h13.5a11.581 11.581 0 0 1 11.58 11.58z" fill="#5a5a77"/><path d="m335.14 130.41v106.27a11.57 11.57 0 0 1 -11.57 11.57h-13.51a11.57 11.57 0 0 1 -11.57-11.57v-106.27a11.572 11.572 0 0 1 11.57-11.58h13.51a11.572 11.572 0 0 1 11.57 11.58z" fill="#6d6d93"/><path d="m286.91 119h-13.5a11.292 11.292 0 0 0 -11.41 11.41v106.27a11.223 11.223 0 0 0 11.41 11.32h13.5a10.952 10.952 0 0 0 11.09-11.32v-106.27c0-6.4-4.69-11.41-11.09-11.41z" fill="#5a5a77"/><path d="m115.39 119h-13.51c-6.39 0-11.88 5.01-11.88 11.41v106.27c0 6.39 5.49 11.32 11.88 11.32h13.51a11.393 11.393 0 0 0 11.61-11.32v-106.27a11.462 11.462 0 0 0 -11.61-11.41z" fill="#5a5a77"/><path d="m90.31 130.41v106.27a11.578 11.578 0 0 1 -11.58 11.57h-13.5a11.578 11.578 0 0 1 -11.58-11.57v-106.27a11.581 11.581 0 0 1 11.58-11.58h13.5a11.581 11.581 0 0 1 11.58 11.58z" fill="#6d6d93"/><path d="m53.65 130.41v106.27a11.57 11.57 0 0 1 -11.57 11.57h-13.51a11.57 11.57 0 0 1 -11.57-11.57v-106.27a11.572 11.572 0 0 1 11.57-11.58h13.51a11.572 11.572 0 0 1 11.57 11.58z" fill="#5a5a77"/><path d="m250.16 302.65h134.88v51.62h-134.88z" fill="#a5bfce"/><path d="m126.96 157.73h134.88v51.62h-134.88z" fill="#a5bfce"/><g fill="#284268"><path d="m256 236.675a17.242 17.242 0 0 0 17.409 17.325h13.5a17.482 17.482 0 0 0 11.574-4.383 17.486 17.486 0 0 0 11.579 4.383h13.506a17.486 17.486 0 0 0 11.575-4.383 17.482 17.482 0 0 0 11.574 4.383h13.5a17.558 17.558 0 0 0 17.783-17.325v-106.269a17.627 17.627 0 0 0 -17.778-17.406h-13.5a17.482 17.482 0 0 0 -11.574 4.383 17.486 17.486 0 0 0 -11.58-4.383h-13.506a17.486 17.486 0 0 0 -11.574 4.383 17.482 17.482 0 0 0 -11.574-4.383h-13.5a17.31 17.31 0 0 0 -17.414 17.406v21.594h-123v-21.594a17.485 17.485 0 0 0 -17.614-17.406h-13.5a17.406 17.406 0 0 0 -11.693 4.408 17.2 17.2 0 0 0 -11.461-4.408h-13.5a17.486 17.486 0 0 0 -11.575 4.383 17.482 17.482 0 0 0 -11.578-4.383h-13.5a17.451 17.451 0 0 0 -17.579 17.406v106.269a17.383 17.383 0 0 0 17.574 17.325h13.505a17.482 17.482 0 0 0 11.574-4.383 17.486 17.486 0 0 0 11.575 4.383h13.5a17.291 17.291 0 0 0 11.43-4.39 17.375 17.375 0 0 0 11.723 4.39h13.5a17.417 17.417 0 0 0 17.619-17.325v-21.675h123zm85-106.1a5.575 5.575 0 0 1 5.574-5.575h13.852a5.575 5.575 0 0 1 5.574 5.574v105.852a5.575 5.575 0 0 1 -5.574 5.574h-13.852a5.575 5.575 0 0 1 -5.574-5.574zm-37 0a5.575 5.575 0 0 1 5.574-5.575h13.852a5.575 5.575 0 0 1 5.574 5.574v105.852a5.575 5.575 0 0 1 -5.574 5.574h-13.852a5.575 5.575 0 0 1 -5.574-5.574zm-36 0a5.575 5.575 0 0 1 5.574-5.575h13.852a5.575 5.575 0 0 1 5.574 5.574v105.852a5.575 5.575 0 0 1 -5.574 5.574h-13.852a5.575 5.575 0 0 1 -5.574-5.574zm-183.7 108.249a5.346 5.346 0 0 1 -4.874 3.176h-13.852a5.575 5.575 0 0 1 -5.574-5.574v-54.426a6 6 0 0 0 -12 0v54.426a5.575 5.575 0 0 1 -5.574 5.574h-13.852a5.575 5.575 0 0 1 -5.574-5.574v-105.852a5.575 5.575 0 0 1 5.574-5.574h13.852a5.575 5.575 0 0 1 5.574 5.574v11.426a6 6 0 0 0 12 0v-11.426a5.575 5.575 0 0 1 5.574-5.574h13.852a5.347 5.347 0 0 1 4.882 3.195zm36.7-2.4a5.575 5.575 0 0 1 -5.574 5.576h-13.852a5.575 5.575 0 0 1 -5.574-5.574v-105.852a5.575 5.575 0 0 1 5.574-5.574h13.852a5.575 5.575 0 0 1 5.574 5.574zm12-33.424v-39h123v39z"/><path d="m222.819 173h-55.664a6 6 0 1 0 0 12h55.664a6 6 0 0 0 0-12z"/><path d="m148.665 173h-5.357a6 6 0 0 0 0 12h5.357a6 6 0 0 0 0-12z"/><path d="m483.426 258h-13.5a17.482 17.482 0 0 0 -11.574 4.383 17.486 17.486 0 0 0 -11.58-4.383h-13.5a17.486 17.486 0 0 0 -11.575 4.383 17.482 17.482 0 0 0 -11.578-4.383h-13.505a17.417 17.417 0 0 0 -17.614 17.325v21.675h-123v-21.675a17.242 17.242 0 0 0 -17.409-17.325h-13.5a17.482 17.482 0 0 0 -11.574 4.383 17.486 17.486 0 0 0 -11.579-4.383h-13.506a17.486 17.486 0 0 0 -11.575 4.383 17.482 17.482 0 0 0 -11.574-4.383h-13.5a17.558 17.558 0 0 0 -17.783 17.325v106.269a17.627 17.627 0 0 0 17.778 17.406h13.5a17.482 17.482 0 0 0 11.574-4.383 17.486 17.486 0 0 0 11.58 4.383h13.506a17.486 17.486 0 0 0 11.574-4.383 17.482 17.482 0 0 0 11.574 4.383h13.5a17.31 17.31 0 0 0 17.414-17.406v-21.594h123v21.594a17.485 17.485 0 0 0 17.614 17.406h13.505a17.482 17.482 0 0 0 11.574-4.383 17.486 17.486 0 0 0 11.575 4.383h13.5a17.486 17.486 0 0 0 11.575-4.383 17.482 17.482 0 0 0 11.578 4.383h13.5a17.451 17.451 0 0 0 17.579-17.406v-106.269a17.383 17.383 0 0 0 -17.574-17.325zm-312.426 123.426a5.575 5.575 0 0 1 -5.574 5.574h-13.852a5.575 5.575 0 0 1 -5.574-5.574v-105.852a5.575 5.575 0 0 1 5.574-5.574h13.852a5.575 5.575 0 0 1 5.574 5.574zm37 0a5.575 5.575 0 0 1 -5.574 5.574h-13.852a5.575 5.575 0 0 1 -5.574-5.574v-105.852a5.575 5.575 0 0 1 5.574-5.574h13.852a5.575 5.575 0 0 1 5.574 5.574zm37 0a5.575 5.575 0 0 1 -5.574 5.574h-13.852a5.575 5.575 0 0 1 -5.574-5.574v-105.852a5.575 5.575 0 0 1 5.574-5.574h13.852a5.575 5.575 0 0 1 5.574 5.574zm134-33.426h-123v-39h123zm37 33.426a5.575 5.575 0 0 1 -5.574 5.574h-13.852a5.575 5.575 0 0 1 -5.574-5.574v-105.852a5.575 5.575 0 0 1 5.574-5.574h13.852a5.575 5.575 0 0 1 5.574 5.574zm37 0a5.575 5.575 0 0 1 -5.574 5.574h-13.852a5.575 5.575 0 0 1 -5.574-5.574v-105.852a5.575 5.575 0 0 1 5.574-5.574h13.852a5.575 5.575 0 0 1 5.574 5.574zm36 0a5.575 5.575 0 0 1 -5.574 5.574h-13.852a5.575 5.575 0 0 1 -5.574-5.574v-105.852a5.575 5.575 0 0 1 5.574-5.574h13.852a5.575 5.575 0 0 1 5.574 5.574z"/></g></svg>