<svg id="Layer_1" height="512" viewBox="0 0 512 512" width="512" xmlns="http://www.w3.org/2000/svg" data-name="Layer 1"><path d="m407.3 163.08a78.918 78.918 0 0 0 -36.833-29.98l-228.906-.01c-30.295 12.15-50.561 42.52-50.561 75.93v245.21a40.657 40.657 0 0 0 40.65 40.77h248.7a40.657 40.657 0 0 0 40.65-40.77v-245.21a83.107 83.107 0 0 0 -13.7-45.94z" fill="#bad79d"/><path d="m370.5 90.04v43.06l-229-.01v-43.05z" fill="#a5bc8a"/><path d="m371.45 17h-230.9a12.507 12.507 0 0 0 -12.55 12.23v60.77h256v-60.77a12.507 12.507 0 0 0 -12.55-12.23z" fill="#59597a"/><path d="m421.15 220.41v213.21h-238.71v-213.21z" fill="#f1ce7c"/><rect fill="#59597a" height="101.16" rx="13.56" width="27.14" x="341.41" y="277.27"/><rect fill="#59597a" height="101.16" rx="13.56" width="27.14" x="242.18" y="277.27"/><rect fill="#6d6d93" height="60.39" rx="13.56" width="27.14" x="368.55" y="297.66"/><path d="m242.18 311.22v33.27a13.559 13.559 0 0 1 -13.56 13.56h-.02a13.565 13.565 0 0 1 -13.56-13.56v-33.27a13.565 13.565 0 0 1 13.56-13.56h.02a13.559 13.559 0 0 1 13.56 13.56z" fill="#6d6d93"/><path d="m341.41 315.36v24.99h-71.93-.16v-24.99h.16z" fill="#b0b5ca"/><path d="m121 454.23v-245.21c0-33.409 20.265-63.778 50.553-75.929h-30c-30.287 12.149-50.553 42.519-50.553 75.929v245.21a40.657 40.657 0 0 0 40.65 40.77h30a40.657 40.657 0 0 1 -40.65-40.77z" fill="#dbf4be"/><path d="m171.556 133.09h-.056v-43.05h-30v43.05h.056l29.997.001z" fill="#bed3a3"/><path d="m158 29.23a12.507 12.507 0 0 1 12.55-12.23h-30a12.507 12.507 0 0 0 -12.55 12.23v60.77h30z" fill="#767699"/><g fill="#284268"><path d="m119 244.537a6 6 0 0 0 -6 6v105.663a6 6 0 0 0 12 0v-105.663a6 6 0 0 0 -6-6z"/><path d="m119 218.689a6 6 0 0 0 -6 6v5.357a6 6 0 0 0 12 0v-5.357a6 6 0 0 0 -6-6z"/><path d="m228.605 364h.018a17.426 17.426 0 0 0 7.377-1.472v2.346c0 10.786 8.957 19.126 19.742 19.126h.018a18.943 18.943 0 0 0 19.24-19.126v-18.874h60v18.874c0 10.786 9.186 19.126 19.972 19.126h.017c10.785 0 20.011-8.34 20.011-19.126v-2.346a16.194 16.194 0 0 0 7.109 1.472h.018a19.81 19.81 0 0 0 19.873-19.51v-33.275a19.527 19.527 0 0 0 -19.508-19.559 17.964 17.964 0 0 0 -7.492 1.522v-2.346c0-10.786-9.206-19.56-20.008-19.56-10.786 0-19.992 8.774-19.992 19.56v18.168h-60v-18.168a19.5 19.5 0 1 0 -39 0v2.349a17.993 17.993 0 0 0 -7.509-1.525 19.523 19.523 0 0 0 -19.491 19.559v33.275a19.577 19.577 0 0 0 19.605 19.51zm146.395-52.785a7.5 7.5 0 1 1 15 0v33.275a7.8 7.8 0 0 1 -7.873 7.51h-.018c-4.169 0-7.109-3.341-7.109-7.51zm-28-20.383c0-4.169 3.823-7.56 8.009-7.56 4.168 0 7.991 3.391 7.991 7.56v74.042c0 4.168-3.843 7.126-8.011 7.126h-.017c-4.169 0-7.972-2.958-7.972-7.126zm-72 30.168h60v13h-60zm-27 23.49v-53.658a7.5 7.5 0 1 1 15 0v74.042a6.941 6.941 0 0 1 -7.24 7.126h-.018c-4.168 0-7.742-2.958-7.742-7.126zm-27-33.275a7.5 7.5 0 1 1 15 0v33.275a7.372 7.372 0 0 1 -7.377 7.51h-.018a7.565 7.565 0 0 1 -7.6-7.51z"/><path d="m376 129.121v-33.121h10.038a5.98 5.98 0 0 0 5.962-5.962v-60.808a18.23 18.23 0 0 0 -18.23-18.23h-231.223a18.6 18.6 0 0 0 -18.547 18.547v60.491a5.962 5.962 0 0 0 5.962 5.962h6.038v33.143c-31 14-51 45.577-51 79.872v245.217a46.707 46.707 0 0 0 46.646 46.768h248.708a46.707 46.707 0 0 0 46.646-46.768v-245.212a88.96 88.96 0 0 0 -14.955-49.251 82.736 82.736 0 0 0 -36.045-30.648zm-240-99.891a6.23 6.23 0 0 1 6.23-6.23h231.223a6.566 6.566 0 0 1 6.547 6.547v54.453h-177a6 6 0 0 0 0 12h161v31.1h-216v-31.1h15a6 6 0 0 0 0-12h-27zm279 398.77h-227v-202h227zm0-214h-232.558a6.758 6.758 0 0 0 -6.442 6.414v213.205a6.727 6.727 0 0 0 6.442 6.381h232.558v14.232a34.694 34.694 0 0 1 -34.646 34.768h-248.708a34.694 34.694 0 0 1 -34.646-34.768v-245.217c0-30.458 18.316-58.4 45.794-69.923h226.467c27.467 11.336 45.739 39.285 45.739 69.928z"/></g></svg>