<svg id="Layer_1" height="512" viewBox="0 0 512 512" width="512" xmlns="http://www.w3.org/2000/svg" data-name="Layer 1"><path d="m489.23 407.2v40a47.923 47.923 0 0 1 -48.05 47.8h-370.36a47.923 47.923 0 0 1 -48.05-47.8v-40a40 40 0 0 0 40 40h386.46a40 40 0 0 0 40-40z" fill="#4689d3"/><path d="m449.23 17h-386.46a39.806 39.806 0 0 0 -39.77 40v350.2a39.636 39.636 0 0 0 39.77 39.8h386.46a39.636 39.636 0 0 0 39.77-39.8v-350.2a39.806 39.806 0 0 0 -39.77-40z" fill="#5fa8ed"/><path d="m256.23 53h-.46c-.26 0-.3.015-.545.025a91.031 91.031 0 0 0 -90.225 91.225v24.75h182v-24.75c0-50.38-40.39-91.25-90.77-91.25z" fill="#f3ce7d"/><path d="m442.95 243.77v153.41a14.374 14.374 0 0 1 -14.41 14.34h-345.08a14.374 14.374 0 0 1 -14.41-14.34v-153.41a14.374 14.374 0 0 1 14.41-14.34h99.69a14.406 14.406 0 0 1 13.68 9.81l8.58 25.62a53.417 53.417 0 0 0 101.18 0l8.58-25.62a14.406 14.406 0 0 1 13.68-9.81h99.69a14.374 14.374 0 0 1 14.41 14.34z" fill="#7ce5e9"/><path d="m271.78 168.96v.32h-31.56v-.32a15.78 15.78 0 0 1 31.56 0z" fill="#4a5160"/><path d="m99 397.18v-153.41a14.789 14.789 0 0 1 14.46-14.77h-30a14.789 14.789 0 0 0 -14.46 14.77v153.41c0 7.92 6.5 14.82 14.46 14.82h30c-7.96 0-14.46-6.9-14.46-14.82z" fill="#67cece"/><path d="m53 407.2v-350.2a39.806 39.806 0 0 1 39.77-40h-30a39.806 39.806 0 0 0 -39.77 40v350.2a39.636 39.636 0 0 0 39.77 39.8h30a39.636 39.636 0 0 1 -39.77-39.8z" fill="#92ceff"/><path d="m52.77 447.2v-1.26a40.019 40.019 0 0 1 -30-38.74v40a47.923 47.923 0 0 0 48.05 47.8h30a47.923 47.923 0 0 1 -48.05-47.8z" fill="#58a6ed"/><g fill="#284268"><path d="m449.227 11h-386.454a45.775 45.775 0 0 0 -45.773 45.9v390.3a53.79 53.79 0 0 0 53.816 53.8h370.368a53.706 53.706 0 0 0 53.816-53.7v-390.3a45.859 45.859 0 0 0 -45.773-46zm33.773 436.2a41.777 41.777 0 0 1 -41.816 41.8h-370.368a41.777 41.777 0 0 1 -41.816-41.8v-9.049c8 9.238 20.317 14.849 33.773 14.849h386.454c13.456 0 25.773-5.611 33.773-14.852zm0-40a33.677 33.677 0 0 1 -33.773 33.8h-386.454a33.677 33.677 0 0 1 -33.773-33.8v-350.2a33.845 33.845 0 0 1 33.773-34h386.454a33.845 33.845 0 0 1 33.773 34z"/><path d="m50 77.537a6 6 0 0 0 -6 6v85.663a6 6 0 0 0 12 0v-85.663a6 6 0 0 0 -6-6z"/><path d="m50 51.689a6 6 0 0 0 -6 6v5.357a6 6 0 0 0 12 0v-5.357a6 6 0 0 0 -6-6z"/><path d="m164.554 175h182.892a5.4 5.4 0 0 0 5.554-5.718v-25.031c0-53.605-43.165-97.251-96.771-97.251h-.458c-.042 0-.083.019-.124.019a6.009 6.009 0 0 0 -.647-.028 3.049 3.049 0 0 0 -.543.059 97.137 97.137 0 0 0 -95.457 97.201v25.031a5.4 5.4 0 0 0 5.554 5.718zm83.679-12c1.788-2 4.6-3.979 7.767-3.979s5.979 1.979 7.767 3.979zm-56.458-74.928 4.363 4.341a6 6 0 0 0 8.465-8.506l-4.294-4.273a84.824 84.824 0 0 1 48.691-20.306v5.672a6 6 0 0 0 12 0v-5.824a84.82 84.82 0 0 1 50.691 20.458l-4.291 4.273a6 6 0 0 0 8.465 8.506l4.363-4.341a84.837 84.837 0 0 1 20.964 49.928h-6.192a6 6 0 0 0 0 12h6v13h-63.993a21.9 21.9 0 0 0 -21.007-15.839c-.345 0-.688.081-1.028.1l-17.564-37.332a6.005 6.005 0 0 0 -10.859 5.131l16.989 36.01a21.262 21.262 0 0 0 -8.545 11.93h-63.993v-13h6a6 6 0 0 0 0-12h-6.192a84.837 84.837 0 0 1 20.967-49.928z"/><path d="m428.539 223h-99.693a21.408 21.408 0 0 0 -19.846 14.115v.108l-8.341 25.677a47.283 47.283 0 0 1 -89.62.041l-8.552-25.827a20.536 20.536 0 0 0 -19.333-14.114h-51.154a6 6 0 0 0 0 12h51.154a8.6 8.6 0 0 1 7.985 5.927l8.582 25.727a59.454 59.454 0 0 0 112.628.08l8.651-25.6v-.208a8.277 8.277 0 0 1 7.846-5.926h99.693a8.8 8.8 0 0 1 8.461 8.771v153.409c0 4.6-3.822 8.82-8.461 8.82h-345.078c-4.639 0-8.461-4.221-8.461-8.82v-153.409a8.8 8.8 0 0 1 8.461-8.771h8.539a6 6 0 0 0 0-12h-8.539c-11.256 0-20.461 9.556-20.461 20.771v153.409c0 11.22 9.205 20.82 20.461 20.82h345.078c11.261 0 20.461-9.6 20.461-20.82v-153.409c0-11.215-9.2-20.771-20.461-20.771z"/></g></svg>