<svg id="Layer_1" height="512" viewBox="0 0 512 512" width="512" xmlns="http://www.w3.org/2000/svg" data-name="Layer 1"><path d="m460.9 379.26h-356.35v-22.56h333.78a22.562 22.562 0 0 1 22.57 22.56z" fill="#7d8595"/><path d="m462.535 379h-389.325c-18.05 0-32.21 14.89-32.21 32.94v.01c0 18.05 14.16 33.05 32.21 33.05h389.11c18.05 0 32.68-15 32.68-33.05v-.01c0-18.05-14.415-32.94-32.465-32.94z" fill="#696993"/><path d="m75 132.24v246.76h30v-1-228.08z" fill="#6994fe"/><path d="m20.98 67.37a28.741 28.741 0 0 0 10.18 39.36l118.15 69.43a28.768 28.768 0 0 0 39.35-10.26z" fill="#ea7288"/><path d="m123.4 206.99-65.6.41.03 44.56 65.6-.42z" fill="#ea7288"/><path d="m446.96 393.14a18.805 18.805 0 1 1 -18.81 18.8 18.806 18.806 0 0 1 18.81-18.8z" fill="#56568c"/><path d="m387.23 393.14a18.805 18.805 0 1 1 -18.81 18.8 18.806 18.806 0 0 1 18.81-18.8z" fill="#56568c"/><path d="m327.5 393.14a18.805 18.805 0 1 1 -18.81 18.8 18.812 18.812 0 0 1 18.81-18.8z" fill="#56568c"/><path d="m267.76 393.14a18.805 18.805 0 1 1 -18.81 18.8 18.806 18.806 0 0 1 18.81-18.8z" fill="#56568c"/><path d="m208.03 393.14a18.805 18.805 0 1 1 -18.81 18.8 18.806 18.806 0 0 1 18.81-18.8z" fill="#56568c"/><path d="m148.3 393.14a18.805 18.805 0 1 1 -18.81 18.8 18.806 18.806 0 0 1 18.81-18.8z" fill="#56568c"/><path d="m71 411.95v-.01c0-18.05 14.16-32.94 32.21-32.94h-30c-18.05 0-32.21 14.89-32.21 32.94v.01c0 18.05 14.16 33.05 32.21 33.05h30c-18.05 0-32.21-15-32.21-33.05z" fill="#8b8bb7"/><path d="m88.57 393.14a18.805 18.805 0 1 1 -18.81 18.8 18.806 18.806 0 0 1 18.81-18.8z" fill="#56568c"/><g fill="#284268"><path d="m48 364.534a6 6 0 0 0 12 0v-68.664a6 6 0 0 0 -12 0z"/><path d="m54 281.379a6 6 0 0 0 6-6v-5.357a6 6 0 0 0 -12 0v5.357a6 6 0 0 0 6 6z"/><path d="m267.764 387.138a24.807 24.807 0 1 0 24.81 24.807 24.837 24.837 0 0 0 -24.81-24.807zm0 37.614a12.807 12.807 0 1 1 12.81-12.807 12.823 12.823 0 0 1 -12.81 12.807z"/><path d="m327.5 387.138a24.807 24.807 0 1 0 24.811 24.807 24.836 24.836 0 0 0 -24.811-24.807zm0 37.614a12.807 12.807 0 1 1 12.811-12.807 12.822 12.822 0 0 1 -12.811 12.807z"/><path d="m387.229 387.138a24.807 24.807 0 1 0 24.81 24.807 24.837 24.837 0 0 0 -24.81-24.807zm0 37.614a12.807 12.807 0 1 1 12.81-12.807 12.823 12.823 0 0 1 -12.81 12.807z"/><path d="m446.961 387.138a24.807 24.807 0 1 0 24.81 24.807 24.837 24.837 0 0 0 -24.81-24.807zm0 37.614a12.807 12.807 0 1 1 12.81-12.807 12.823 12.823 0 0 1 -12.81 12.807z"/><path d="m208.031 387.138a24.807 24.807 0 1 0 24.811 24.807 24.836 24.836 0 0 0 -24.811-24.807zm0 37.614a12.807 12.807 0 1 1 12.811-12.807 12.822 12.822 0 0 1 -12.811 12.807z"/><path d="m148.3 387.138a24.807 24.807 0 1 0 24.81 24.807 24.837 24.837 0 0 0 -24.81-24.807zm0 37.614a12.807 12.807 0 1 1 12.81-12.807 12.823 12.823 0 0 1 -12.81 12.807z"/><path d="m88.566 387.138a24.807 24.807 0 1 0 24.811 24.807 24.836 24.836 0 0 0 -24.811-24.807zm0 37.614a12.807 12.807 0 1 1 12.811-12.807 12.822 12.822 0 0 1 -12.811 12.807z"/><path d="m466.272 373.468a28.48 28.48 0 0 0 -27.938-22.468h-327.334v-93.377l12.7-.082a5.906 5.906 0 0 0 5.85-6.006l-.1-44.555a6.035 6.035 0 0 0 -6.05-5.98h-.039l-12.361.068v-40.728l35.5 20.992a34.08 34.08 0 0 0 17.4 4.772 34.722 34.722 0 0 0 29.986-17.161 6.019 6.019 0 0 0 -2.19-8.214l-167.677-98.529a6 6 0 0 0 -8.213 2.132 34.561 34.561 0 0 0 12.526 47.568l40.668 23.773v65.662l-11.029.069a6.093 6.093 0 0 0 -6.071 6.006l-.014 44.554a6.02 6.02 0 0 0 1.745 4.273 5.958 5.958 0 0 0 4.2 1.763h.038l11.131-.109v115.458c-18.157 2.378-32.911 16.939-34.354 35.6-1.754 22.667 16.223 42.051 38.564 42.051h389.107a38.945 38.945 0 0 0 38.565-41.976c-1.447-18.747-16.334-33.283-34.61-35.556zm-432.072-271.912a22.759 22.759 0 0 1 -10.4-25.571l155.952 91.645a22.774 22.774 0 0 1 -27.4 3.356zm64.8 51.733v47.855l-18 .115v-58.534zm-35.171 92.631-.029-32.554 53.6-.342.03 32.555zm35.171 11.78v115.3h-18v-115.186zm363.317 181.3h-388.217c-14.01 0-26.111-10.452-27.444-24.4-1.518-15.835 10.981-29.6 26.554-29.6h53.79a6 6 0 0 0 0-12h-16v-10h327.334a16.319 16.319 0 0 1 15.326 10h-286.66a6 6 0 0 0 0 12h292.147a5.962 5.962 0 0 0 3.4.026c13.53.538 25.028 10.8 26.326 24.373 1.517 15.836-10.982 29.601-26.556 29.601z"/></g></svg>